<?xml version="1.0" encoding="iso-8859-1"?>
<!-- Generator: Adobe Illustrator 23.1.1, SVG Export Plug-In . SVG Version: 6.00 Build 0)  -->
<svg version="1.1" id="_x31_-outline-expand" xmlns="http://www.w3.org/2000/svg" xmlns:xlink="http://www.w3.org/1999/xlink"
	 x="0px" y="0px" viewBox="0 0 64 64" style="enable-background:new 0 0 64 64;" xml:space="preserve">
<path d="M61,20H48V3c0-0.553-0.448-1-1-1H17c-0.552,0-1,0.447-1,1v17H3c-0.552,0-1,0.447-1,1v40c0,0.553,0.448,1,1,1h58
	c0.552,0,1-0.447,1-1V21C62,20.447,61.552,20,61,20z M4,22h12v38H4V22z M35,50v10h-6V50H35z M46,60h-9V50h2v-2H25v2h2v10h-9V4h28V60
	z M60,60H48V22h12V60z"/>
<path d="M51,32h6c0.552,0,1-0.447,1-1v-6c0-0.553-0.448-1-1-1h-6c-0.552,0-1,0.447-1,1v6C50,31.553,50.448,32,51,32z M52,26h4v4h-4
	V26z"/>
<path d="M51,42h6c0.552,0,1-0.447,1-1v-6c0-0.553-0.448-1-1-1h-6c-0.552,0-1,0.447-1,1v6C50,41.553,50.448,42,51,42z M52,36h4v4h-4
	V36z"/>
<path d="M51,52h6c0.552,0,1-0.447,1-1v-6c0-0.553-0.448-1-1-1h-6c-0.552,0-1,0.447-1,1v6C50,51.553,50.448,52,51,52z M52,46h4v4h-4
	V46z"/>
<path d="M13,24H7c-0.552,0-1,0.447-1,1v6c0,0.553,0.448,1,1,1h6c0.552,0,1-0.447,1-1v-6C14,24.447,13.552,24,13,24z M12,30H8v-4h4
	V30z"/>
<path d="M21,28h4c0.552,0,1-0.447,1-1v-4c0-0.553-0.448-1-1-1h-4c-0.552,0-1,0.447-1,1v4C20,27.553,20.448,28,21,28z M22,24h2v2h-2
	V24z"/>
<path d="M34,22h-4c-0.552,0-1,0.447-1,1v4c0,0.553,0.448,1,1,1h4c0.552,0,1-0.447,1-1v-4C35,22.447,34.552,22,34,22z M33,26h-2v-2h2
	V26z"/>
<path d="M38,23v4c0,0.553,0.448,1,1,1h4c0.552,0,1-0.447,1-1v-4c0-0.553-0.448-1-1-1h-4C38.448,22,38,22.447,38,23z M40,24h2v2h-2
	V24z"/>
<path d="M21,36h4c0.552,0,1-0.447,1-1v-4c0-0.553-0.448-1-1-1h-4c-0.552,0-1,0.447-1,1v4C20,35.553,20.448,36,21,36z M22,32h2v2h-2
	V32z"/>
<path d="M34,30h-4c-0.552,0-1,0.447-1,1v4c0,0.553,0.448,1,1,1h4c0.552,0,1-0.447,1-1v-4C35,30.447,34.552,30,34,30z M33,34h-2v-2h2
	V34z"/>
<path d="M43,30h-4c-0.552,0-1,0.447-1,1v4c0,0.553,0.448,1,1,1h4c0.552,0,1-0.447,1-1v-4C44,30.447,43.552,30,43,30z M42,34h-2v-2h2
	V34z"/>
<path d="M21,44h4c0.552,0,1-0.447,1-1v-4c0-0.553-0.448-1-1-1h-4c-0.552,0-1,0.447-1,1v4C20,43.553,20.448,44,21,44z M22,40h2v2h-2
	V40z"/>
<path d="M34,38h-4c-0.552,0-1,0.447-1,1v4c0,0.553,0.448,1,1,1h4c0.552,0,1-0.447,1-1v-4C35,38.447,34.552,38,34,38z M33,42h-2v-2h2
	V42z"/>
<path d="M43,38h-4c-0.552,0-1,0.447-1,1v4c0,0.553,0.448,1,1,1h4c0.552,0,1-0.447,1-1v-4C44,38.447,43.552,38,43,38z M42,42h-2v-2h2
	V42z"/>
<path d="M13,34H7c-0.552,0-1,0.447-1,1v6c0,0.553,0.448,1,1,1h6c0.552,0,1-0.447,1-1v-6C14,34.447,13.552,34,13,34z M12,40H8v-4h4
	V40z"/>
<path d="M13,44H7c-0.552,0-1,0.447-1,1v6c0,0.553,0.448,1,1,1h6c0.552,0,1-0.447,1-1v-6C14,44.447,13.552,44,13,44z M12,50H8v-4h4
	V50z"/>
<path d="M26,16h3v3c0,0.553,0.448,1,1,1h4c0.552,0,1-0.447,1-1v-3h3c0.552,0,1-0.447,1-1v-4c0-0.553-0.448-1-1-1h-3V7
	c0-0.553-0.448-1-1-1h-4c-0.552,0-1,0.447-1,1v3h-3c-0.552,0-1,0.447-1,1v4C25,15.553,25.448,16,26,16z M27,12h3
	c0.552,0,1-0.447,1-1V8h2v3c0,0.553,0.448,1,1,1h3v2h-3c-0.552,0-1,0.447-1,1v3h-2v-3c0-0.553-0.448-1-1-1h-3V12z"/>
<rect x="42" y="56" width="2" height="2"/>
<rect x="42" y="52" width="2" height="2"/>
<rect x="42" y="48" width="2" height="2"/>
</svg>
