<?xml version="1.0" encoding="utf-8"?>
<!-- Generator: Adobe Illustrator 23.0.3, SVG Export Plug-In . SVG Version: 6.00 Build 0)  -->
<svg version="1.1" id="Icons" xmlns="http://www.w3.org/2000/svg" xmlns:xlink="http://www.w3.org/1999/xlink" x="0px" y="0px"
	 viewBox="0 0 32 32" style="enable-background:new 0 0 32 32;" xml:space="preserve">
<style type="text/css">
	.st0{fill:none;stroke:#000000;stroke-width:2;stroke-linecap:round;stroke-linejoin:round;stroke-miterlimit:10;}
</style>
<polyline class="st0" points="14,10 16,10 18,8 20,12 22,7 24,10 "/>
<path class="st0" d="M3,25l2.6-4.2c1.5-2.3,4-3.8,6.8-3.8H19v0c0,2.2-1.8,4-4,4h-2"/>
<path class="st0" d="M15,21h8l1.2-1.6c1.1-1.5,2.9-2.4,4.8-2.4h0l-2.7,4.8c-1.4,2.6-4.2,4.2-7.1,4.2h0c-4.7,0-9.3,1.4-13.2,4l0,0"/>
<path class="st0" d="M16.1,17l-4.4-4.7l-1.2-1.3c-2-2.1-2-5.4,0-7.5l0,0c2-2.1,5.3-2.1,7.3,0l1,1c0.1,0.1,0.3,0.1,0.4,0l1-1
	c2-2.1,5.3-2.1,7.3,0l0,0c2,2.1,2,5.4,0,7.5l-1.2,1.3L22,16.7l-2.8,2.9"/>
</svg>
